# xmcd CD database file
#
# Track frame offsets:
#	182
#	14507
#	24707
#	36032
#	50057
#	64382
#	77057
#	95282
#	105857
#	117182
#	128732
#	139682
#	153632
#	165857
#	182132
#	196157
#	207782
#	224582
#	240332
#	253682
#
# Disc length: 3555 seconds
#
# Revision: 1
# Processed by: cddbd v1.5.2PL0 Copyright (c) Steve Scherf et al.
# Submitted via: CDex 2.12
#
DISCID=0e0de114
DTITLE=Bread - Anthology [CD)
DYEAR=1900
DGENRE=Blues
TTITLE0=Make It With You (Radio Edit)
TTITLE1=Dismal Day (Radio Edit)
TTITLE2=London Bridge (Radio Edit)
TTITLE3=Anyway You Want Me (Radio Edit)
TTITLE4=Look What You've Done (Radio Edit)
TTITLE5=It Don't Matter To Me (Radio Edit)
TTITLE6=The Last Time (Radio Edit)
TTITLE7=Let Your Love Go (Radio Edit)
TTITLE8=Truckin' (Radio Edit)
TTITLE9=If (Radio Edit)
TTITLE10=Baby I'm A Want You (Radio Edit)
TTITLE11=Everything I Own (Radio Edit)
TTITLE12=Down On My Knees (Radio Edit)
TTITLE13=Aubrey (Radio Edit)
TTITLE14=Diary (Radio Edit)
TTITLE15=Sweet Surrender (Radio Edit)
TTITLE16=The Guitar Man (Radio Edit)
TTITLE17=Fancy Dancer (Radio Edit)
TTITLE18=She's The Only One (Radio Edit)
TTITLE19=Lost Without Your Love (Radio Edit)
EXTD=
EXTT0=
EXTT1=
EXTT2=
EXTT3=
EXTT4=
EXTT5=
EXTT6=
EXTT7=
EXTT8=
EXTT9=
EXTT10=
EXTT11=
EXTT12=
EXTT13=
EXTT14=
EXTT15=
EXTT16=
EXTT17=
EXTT18=
EXTT19=
PLAYORDER=
